<svg data-name="レイヤー 1" xmlns="http://www.w3.org/2000/svg" xmlns:xlink="http://www.w3.org/1999/xlink" viewBox="0 0 621 203"><defs><linearGradient id="a" x1="367.47" y1="112.28" x2="462.49" y2="112.28" gradientUnits="userSpaceOnUse"><stop offset="0" stop-color="#e7715e"/><stop offset=".11" stop-color="#e36764"/><stop offset=".36" stop-color="#de576d"/><stop offset=".64" stop-color="#da4d73"/><stop offset="1" stop-color="#d94a75"/></linearGradient><linearGradient id="b" x1="79.47" y1="118.59" x2="180.53" y2="17.53" xlink:href="#a"/><linearGradient id="c" x1="72.85" y1="192.51" x2="187.15" y2="78.21" xlink:href="#a"/><linearGradient id="d" x1="114.4" y1="121.04" x2="146.96" y2="88.49" xlink:href="#a"/></defs><path d="M430 49c-20.2.1-33.64 14.3-33.81 31-.13 13.29 7.72 22.62 17.88 27.39l-19.88 44.44-21.45-9.6-5.22 11.66 21.45 9.6-3.05 6.82 11.87 5.31 29-64.76c1.25.12 2.5.19 3.75.19 15.18 0 31.75-12.42 32-30.89.13-11.96-7.23-31.28-32.54-31.16zm-.64 50.75c-11.74 0-20.63-8.33-20.63-19.48s8.89-19.8 20.63-19.8 20.48 8.64 20.48 19.8-8.78 19.48-20.53 19.48z" fill="url(#a)"/><path d="M386.06 136.87l-20.46-25v25h-9.66L356 61l9.6-1.5v50.06l19.54-23.11h12.3l-21.38 24.13 22.42 26.29zM301.82 86.45l-34.26 70.68L257 157l13.54-26.16-21.38-44.39h10.58l15.75 34.38 15.75-34.38zM318.05 128.57h29.08l-1.49 8.3h-44.38L331 94.76h-27.44l1.49-8.31h42.66zM570 103.46v31.41h-9.66v-30.38c0-8.31-4.37-12.64-10.69-12.64-6.9 0-11.84 5.24-11.84 13.66v29.36h-9.66v-30.38c0-8.31-4.48-12.64-10.69-12.64-6.9 0-12 5.24-12 13.66v29.36h-9.66V85.14l9.2-1.48v6.6a17.77 17.77 0 0 1 14.49-7.06c6.67 0 12.07 3.08 15.17 8.88a19.32 19.32 0 0 1 16.79-8.88c10.96 0 18.55 7.4 18.55 20.26zM493.82 84.45l-34.26 70.68L449 155l13.54-26.16-21.38-44.39h10.58l15.75 34.38 15.75-34.38z"/><path d="M96.63 79.11l12-12h42.74l12 12v4.15h52.49l-15.19-45.59H59.33L44.14 83.26h52.49z" fill="url(#b)"/><path d="M163.37 133.63l-12 12h-42.74l-12-12v-27.36H44.79L59.33 179h141.34l14.54-72.73h-51.84z" fill="url(#c)"/><path d="M135.74 132.11v-23.48a15.41 15.41 0 1 0-10.27-.11v23.59z" fill="url(#d)"/></svg>