<svg data-name="レイヤー 1" xmlns="http://www.w3.org/2000/svg" viewBox="0 0 362 193"><defs><linearGradient id="a" x1="140.47" y1="98.28" x2="235.49" y2="98.28" gradientUnits="userSpaceOnUse"><stop offset="0" stop-color="#e7715e"/><stop offset=".11" stop-color="#e36764"/><stop offset=".36" stop-color="#de576d"/><stop offset=".64" stop-color="#da4d73"/><stop offset="1" stop-color="#d94a75"/></linearGradient></defs><path d="M203 35c-20.2.1-33.64 14.3-33.81 31-.19 13.24 7.67 22.57 17.81 27.34l-19.88 44.44-21.45-9.6-5.22 11.66 21.45 9.6-3 6.82 11.87 5.31 29-64.76c1.25.12 2.5.19 3.75.19 15.18 0 31.75-12.42 32-30.89.15-11.91-7.21-31.23-32.52-31.11zm-.64 50.75c-11.74 0-20.63-8.33-20.63-19.48s8.89-19.8 20.63-19.8 20.48 8.64 20.48 19.8-8.78 19.48-20.53 19.48z" fill="url(#a)"/><path d="M159.06 122.87l-20.46-25v25h-9.66L129 47l9.6-1.5v50.06l19.54-23.11h12.3l-21.38 24.13 22.42 26.29zM74.82 72.45l-34.26 70.68L30 143l13.54-26.16-21.38-44.39h10.58l15.75 34.38 15.75-34.38zM91.05 114.57h29.08l-1.49 8.3H74.26L104 80.76H76.56l1.49-8.31h42.66zM343 89.46v31.41h-9.66V90.49c0-8.31-4.37-12.64-10.69-12.64-6.9 0-11.84 5.24-11.84 13.66v29.36h-9.66V90.49c0-8.31-4.48-12.64-10.69-12.64-6.9 0-12 5.24-12 13.66v29.36h-9.66V71.14l9.2-1.48v6.6a17.77 17.77 0 0 1 14.49-7.06c6.67 0 12.07 3.08 15.17 8.88a19.32 19.32 0 0 1 16.79-8.88c10.96 0 18.55 7.4 18.55 20.26zM266.82 70.45l-34.26 70.68L222 141l13.54-26.16-21.38-44.39h10.58l15.75 34.38 15.75-34.38z"/></svg>