<svg width="301" height="229" fill="none" xmlns="http://www.w3.org/2000/svg"><path d="M23.725 11.78V50h-12.74V11.78H.52V.99h33.67v10.79H23.725zM37.355 16.655H49.12v5.46c1.257-1.993 2.795-3.51 4.615-4.55 1.82-1.083 3.944-1.625 6.37-1.625h.975c.39 0 .824.043 1.3.13v11.245c-1.56-.78-3.25-1.17-5.07-1.17-2.73 0-4.788.823-6.175 2.47-1.343 1.603-2.015 3.965-2.015 7.085V50H37.355V16.655zM92.39 28.485c-.39-1.647-1.192-2.968-2.406-3.965-1.213-.997-2.686-1.495-4.42-1.495-1.82 0-3.315.477-4.485 1.43-1.126.953-1.841 2.297-2.145 4.03H92.39zM78.61 35.31c0 5.07 2.383 7.605 7.15 7.605 2.556 0 4.484-1.04 5.784-3.12h11.375c-2.296 7.627-8.038 11.44-17.225 11.44-2.816 0-5.395-.412-7.735-1.235-2.34-.867-4.355-2.08-6.045-3.64-1.646-1.56-2.925-3.423-3.835-5.59-.91-2.167-1.365-4.593-1.365-7.28 0-2.773.434-5.265 1.3-7.475.867-2.253 2.102-4.16 3.705-5.72 1.604-1.56 3.532-2.752 5.785-3.575 2.297-.867 4.875-1.3 7.735-1.3 2.817 0 5.352.433 7.605 1.3 2.254.823 4.16 2.037 5.72 3.64 1.56 1.603 2.752 3.575 3.575 5.915.824 2.297 1.235 4.897 1.235 7.8v1.235H78.609zM121.019 33.23a7.99 7.99 0 0 0 .585 3.055c.39.91.91 1.712 1.56 2.405a7.614 7.614 0 0 0 2.405 1.625c.954.39 1.972.585 3.055.585 1.04 0 2.015-.195 2.925-.585.954-.39 1.755-.932 2.405-1.625a7.594 7.594 0 0 0 1.625-2.405c.434-.91.65-1.885.65-2.925 0-1.04-.216-2.015-.65-2.925a7.415 7.415 0 0 0-1.625-2.47c-.65-.693-1.451-1.235-2.405-1.625a7.346 7.346 0 0 0-2.925-.585 7.993 7.993 0 0 0-3.055.585c-.91.39-1.711.932-2.405 1.625a8.213 8.213 0 0 0-1.56 2.405c-.39.867-.585 1.82-.585 2.86zm14.82-16.575h11.83V50h-11.83v-3.705c-2.513 3.163-5.915 4.745-10.205 4.745-2.426 0-4.658-.433-6.695-1.3a16.573 16.573 0 0 1-5.33-3.77c-1.516-1.603-2.708-3.488-3.575-5.655-.823-2.167-1.235-4.528-1.235-7.085 0-2.383.412-4.637 1.235-6.76.824-2.167 1.972-4.052 3.445-5.655a15.856 15.856 0 0 1 5.265-3.77c2.037-.953 4.29-1.43 6.76-1.43 4.16 0 7.605 1.452 10.335 4.355v-3.315zM177.776 25.235c-2.167-1.127-4.29-1.69-6.37-1.69-1.084 0-1.972.217-2.665.65-.65.433-.975 1.018-.975 1.755 0 .39.043.715.13.975.13.217.368.433.715.65.39.217.931.412 1.625.585.736.173 1.69.39 2.86.65 3.25.65 5.676 1.82 7.28 3.51 1.603 1.647 2.405 3.77 2.405 6.37 0 1.95-.39 3.705-1.17 5.265a11.51 11.51 0 0 1-3.25 3.965c-1.387 1.04-3.055 1.842-5.005 2.405-1.95.607-4.095.91-6.435.91-4.507 0-8.949-1.278-13.325-3.835l4.29-8.32c3.293 2.253 6.413 3.38 9.36 3.38 1.083 0 1.971-.238 2.665-.715.693-.477 1.04-1.083 1.04-1.82 0-.433-.065-.78-.195-1.04-.087-.303-.304-.563-.65-.78-.347-.26-.867-.477-1.56-.65-.65-.217-1.517-.433-2.6-.65-3.64-.737-6.197-1.82-7.67-3.25-1.43-1.473-2.145-3.488-2.145-6.045 0-1.863.346-3.532 1.04-5.005a10.358 10.358 0 0 1 2.99-3.835c1.3-1.04 2.86-1.842 4.68-2.405 1.863-.563 3.921-.845 6.175-.845 3.683 0 7.258.715 10.725 2.145l-3.965 7.67zM200.512 16.655V35.44c0 4.117 1.993 6.175 5.98 6.175 3.986 0 5.98-2.058 5.98-6.175V16.655h11.765v21.06c0 4.507-1.495 7.887-4.485 10.14-2.947 2.253-7.367 3.38-13.26 3.38-5.894 0-10.335-1.127-13.325-3.38-2.947-2.253-4.42-5.633-4.42-10.14v-21.06h11.765zM232.228 16.655h11.765v5.46c1.257-1.993 2.795-3.51 4.615-4.55 1.82-1.083 3.944-1.625 6.37-1.625h.975c.39 0 .824.043 1.3.13v11.245c-1.56-.78-3.25-1.17-5.07-1.17-2.73 0-4.788.823-6.175 2.47-1.343 1.603-2.015 3.965-2.015 7.085V50h-11.765V16.655zM287.262 28.485c-.39-1.647-1.191-2.968-2.405-3.965-1.213-.997-2.686-1.495-4.42-1.495-1.82 0-3.315.477-4.485 1.43-1.126.953-1.841 2.297-2.145 4.03h13.455zm-13.78 6.825c0 5.07 2.384 7.605 7.15 7.605 2.557 0 4.485-1.04 5.785-3.12h11.375c-2.296 7.627-8.038 11.44-17.225 11.44-2.816 0-5.395-.412-7.735-1.235-2.34-.867-4.355-2.08-6.045-3.64-1.646-1.56-2.925-3.423-3.835-5.59-.91-2.167-1.365-4.593-1.365-7.28 0-2.773.434-5.265 1.3-7.475.867-2.253 2.102-4.16 3.705-5.72 1.604-1.56 3.532-2.752 5.785-3.575 2.297-.867 4.875-1.3 7.735-1.3 2.817 0 5.352.433 7.605 1.3 2.254.823 4.16 2.037 5.72 3.64 1.56 1.603 2.752 3.575 3.575 5.915.824 2.297 1.235 4.897 1.235 7.8v1.235h-24.765zM15.145 119.165c0 1.127.195 2.167.585 3.12.433.91.975 1.712 1.625 2.405a7.611 7.611 0 0 0 2.405 1.625c.953.39 1.95.585 2.99.585 1.04 0 2.015-.195 2.925-.585.953-.39 1.755-.932 2.405-1.625a7.603 7.603 0 0 0 1.625-2.405c.433-.953.65-1.972.65-3.055 0-1.04-.217-2.015-.65-2.925a7.426 7.426 0 0 0-1.625-2.47c-.65-.693-1.452-1.235-2.405-1.625a7.346 7.346 0 0 0-2.925-.585c-1.04 0-2.037.195-2.99.585-.91.39-1.712.932-2.405 1.625a9.383 9.383 0 0 0-1.625 2.405 7.346 7.346 0 0 0-.585 2.925zm-12.415-.13c0-2.47.498-4.767 1.495-6.89a16.564 16.564 0 0 1 4.16-5.59c1.777-1.603 3.878-2.86 6.305-3.77 2.47-.91 5.157-1.365 8.06-1.365 2.86 0 5.503.455 7.93 1.365 2.47.867 4.593 2.102 6.37 3.705a16.037 16.037 0 0 1 4.225 5.655c.997 2.167 1.495 4.572 1.495 7.215s-.52 5.07-1.56 7.28a17.248 17.248 0 0 1-4.16 5.655c-1.777 1.56-3.922 2.773-6.435 3.64-2.47.867-5.157 1.3-8.06 1.3-2.86 0-5.503-.433-7.93-1.3-2.427-.867-4.528-2.102-6.305-3.705-1.733-1.603-3.098-3.51-4.095-5.72-.997-2.253-1.495-4.745-1.495-7.475zM62.283 112.47V136H50.518v-23.53h-4.225v-9.815h4.225V97.65c0-2.773.26-4.983.78-6.63a11.425 11.425 0 0 1 2.08-3.835 15.092 15.092 0 0 1 3.315-3.12 16.777 16.777 0 0 1 4.16-2.015c1.473-.477 2.925-.715 4.355-.715.996 0 1.906.108 2.73.325.866.217 1.733.52 2.6.91v10.27a10.89 10.89 0 0 0-2.21-.845 6.535 6.535 0 0 0-2.08-.325c-.477 0-.975.087-1.495.26-.477.13-.932.433-1.365.91-.434.477-.737 1.17-.91 2.08-.13.867-.195 2.058-.195 3.575v4.16h8.255v9.815h-8.255zM17.875 172.99v38.22H33.15V222H5.135v-49.01h12.74zM50.39 188.655V222H38.625v-33.345H50.39zM37.845 175.85c0-.91.173-1.755.52-2.535a6.654 6.654 0 0 1 1.43-2.145 6.856 6.856 0 0 1 2.08-1.43 6.627 6.627 0 0 1 2.6-.52c.91 0 1.755.173 2.535.52a6.644 6.644 0 0 1 2.145 1.43 6.651 6.651 0 0 1 1.43 2.145c.346.78.52 1.625.52 2.535a6.63 6.63 0 0 1-.52 2.6 6.858 6.858 0 0 1-1.43 2.08 6.644 6.644 0 0 1-2.145 1.43c-.78.347-1.625.52-2.535.52-.91 0-1.777-.173-2.6-.52a6.856 6.856 0 0 1-2.08-1.43 6.862 6.862 0 0 1-1.43-2.08 6.632 6.632 0 0 1-.52-2.6zM71.17 198.47V222H59.403v-23.53H55.18v-9.815h4.225v-5.005c0-2.773.26-4.983.78-6.63a11.424 11.424 0 0 1 2.08-3.835 15.111 15.111 0 0 1 3.315-3.12 16.777 16.777 0 0 1 4.16-2.015c1.474-.477 2.925-.715 4.355-.715.997 0 1.907.108 2.73.325.867.217 1.734.52 2.6.91v10.27c-.78-.39-1.516-.672-2.21-.845a6.526 6.526 0 0 0-2.08-.325c-.476 0-.975.087-1.495.26-.476.13-.931.433-1.365.91-.433.477-.736 1.17-.91 2.08-.13.867-.195 2.058-.195 3.575v4.16h8.255v9.815H71.17zM108.893 200.485c-.39-1.647-1.191-2.968-2.405-3.965-1.213-.997-2.686-1.495-4.42-1.495-1.82 0-3.315.477-4.485 1.43-1.126.953-1.841 2.297-2.145 4.03h13.455zm-13.78 6.825c0 5.07 2.384 7.605 7.15 7.605 2.557 0 4.485-1.04 5.785-3.12h11.375c-2.296 7.627-8.038 11.44-17.225 11.44-2.816 0-5.395-.412-7.735-1.235-2.34-.867-4.355-2.08-6.045-3.64-1.646-1.56-2.925-3.423-3.835-5.59-.91-2.167-1.365-4.593-1.365-7.28 0-2.773.434-5.265 1.3-7.475.867-2.253 2.102-4.16 3.705-5.72 1.604-1.56 3.532-2.752 5.785-3.575 2.297-.867 4.875-1.3 7.735-1.3 2.817 0 5.352.433 7.605 1.3 2.254.823 4.16 2.037 5.72 3.64 1.56 1.603 2.752 3.575 3.575 5.915.824 2.297 1.235 4.897 1.235 7.8v1.235H95.113zM126.018 215.76c0-1.04.195-2.015.585-2.925a7.43 7.43 0 0 1 1.625-2.47 7.619 7.619 0 0 1 2.405-1.625 7.825 7.825 0 0 1 2.99-.585c1.04 0 2.015.195 2.925.585a7.42 7.42 0 0 1 2.47 1.625 7.415 7.415 0 0 1 1.625 2.47c.39.91.585 1.885.585 2.925a7.82 7.82 0 0 1-.585 2.99 7.591 7.591 0 0 1-1.625 2.405 7.42 7.42 0 0 1-2.47 1.625c-.91.39-1.885.585-2.925.585a7.825 7.825 0 0 1-2.99-.585 7.619 7.619 0 0 1-2.405-1.625 7.608 7.608 0 0 1-1.625-2.405 7.82 7.82 0 0 1-.585-2.99z" fill="#fff"/><path d="M296 114c0 16.802-16.949 32-40 32s-40-15.198-40-32 16.949-32 40-32 40 15.198 40 32z" stroke="#fff" stroke-width="10"/><path fill="#fff" d="M269 142h13v87h-13z"/><path fill="#FEFEFE" d="M236 211h33v11h-33z"/><path d="M244.5 120l10.5 8 11-8" stroke="#fff" stroke-width="6"/><circle cx="241.5" cy="105.5" r="7.5" fill="#fff"/><circle cx="268.5" cy="105.5" r="7.5" fill="#fff"/></svg>