<svg width="320" height="229" fill="none" xmlns="http://www.w3.org/2000/svg"><path d="M23.725 11.78V50h-12.74V11.78H.520004V.98999H34.19V11.78H23.725zM37.3552 16.655h11.765v5.46c1.2567-1.9933 2.795-3.51 4.615-4.55 1.82-1.0833 3.9433-1.625 6.37-1.625h.975c.39 0 .8233.0433 1.3.13v11.245c-1.56-.78-3.25-1.17-5.07-1.17-2.73 0-4.7883.8233-6.175 2.47-1.3433 1.6033-2.015 3.965-2.015 7.085V50h-11.765V16.655zM92.3894 28.485c-.39-1.6467-1.1917-2.9683-2.405-3.965-1.2134-.9967-2.6867-1.495-4.42-1.495-1.82 0-3.315.4767-4.485 1.43-1.1267.9533-1.8417 2.2967-2.145 4.03h13.455zm-13.78 6.825c0 5.07 2.3833 7.605 7.15 7.605 2.5567 0 4.485-1.04 5.785-3.12h11.3746c-2.296 7.6267-8.038 11.44-17.2246 11.44-2.8167 0-5.395-.4117-7.735-1.235-2.34-.8667-4.355-2.08-6.045-3.64-1.6467-1.56-2.925-3.4233-3.835-5.59-.91-2.1667-1.365-4.5933-1.365-7.28 0-2.7733.4333-5.265 1.3-7.475.8666-2.2533 2.1016-4.16 3.705-5.72 1.6033-1.56 3.5316-2.7517 5.785-3.575 2.2966-.8667 4.875-1.3 7.735-1.3 2.8167 0 5.3516.4333 7.605 1.3 2.2533.8233 4.16 2.0367 5.72 3.64 1.5596 1.6033 2.7516 3.575 3.5746 5.915.824 2.2967 1.235 4.8967 1.235 7.8v1.235H78.6094zM121.019 33.23c0 1.0833.195 2.1017.585 3.055.39.91.91 1.7117 1.56 2.405.694.6933 1.495 1.235 2.405 1.625.954.39 1.972.585 3.055.585 1.04 0 2.015-.195 2.925-.585.954-.39 1.755-.9317 2.405-1.625.694-.6933 1.235-1.495 1.625-2.405.434-.91.65-1.885.65-2.925 0-1.04-.216-2.015-.65-2.925-.39-.9533-.931-1.7767-1.625-2.47-.65-.6933-1.451-1.235-2.405-1.625-.91-.39-1.885-.585-2.925-.585-1.083 0-2.101.195-3.055.585-.91.39-1.711.9317-2.405 1.625-.65.6933-1.17 1.495-1.56 2.405-.39.8667-.585 1.82-.585 2.86zm14.82-16.575h11.83V50h-11.83v-3.705c-2.513 3.1633-5.915 4.745-10.205 4.745-2.426 0-4.658-.4333-6.695-1.3-2.036-.91-3.813-2.1667-5.33-3.77-1.516-1.6033-2.708-3.4883-3.575-5.655-.823-2.1667-1.235-4.5283-1.235-7.085 0-2.3833.412-4.6367 1.235-6.76.824-2.1667 1.972-4.0517 3.445-5.655 1.474-1.6033 3.229-2.86 5.265-3.77 2.037-.9533 4.29-1.43 6.76-1.43 4.16 0 7.605 1.4517 10.335 4.355v-3.315zM177.776 25.235c-2.167-1.1267-4.29-1.69-6.37-1.69-1.084 0-1.972.2167-2.665.65-.65.4333-.975 1.0183-.975 1.755 0 .39.043.715.13.975.13.2167.368.4333.715.65.39.2167.931.4117 1.625.585.736.1733 1.69.39 2.86.65 3.25.65 5.676 1.82 7.28 3.51 1.603 1.6467 2.405 3.77 2.405 6.37 0 1.95-.39 3.705-1.17 5.265-.78 1.56-1.864 2.8817-3.25 3.965-1.387 1.04-3.055 1.8417-5.005 2.405-1.95.6067-4.095.91-6.435.91-4.507 0-8.949-1.2783-13.325-3.835l4.29-8.32c3.293 2.2533 6.413 3.38 9.36 3.38 1.083 0 1.971-.2383 2.665-.715.693-.4767 1.04-1.0833 1.04-1.82 0-.4333-.065-.78-.195-1.04-.087-.3033-.304-.5633-.65-.78-.347-.26-.867-.4767-1.56-.65-.65-.2167-1.517-.4333-2.6-.65-3.64-.7367-6.197-1.82-7.67-3.25-1.43-1.4733-2.145-3.4883-2.145-6.045 0-1.8633.346-3.5317 1.04-5.005.693-1.5167 1.69-2.795 2.99-3.835 1.3-1.04 2.86-1.8417 4.68-2.405 1.863-.5633 3.921-.845 6.175-.845 3.683 0 7.258.715 10.725 2.145l-3.965 7.67zM200.512 16.655V35.44c0 4.1167 1.993 6.175 5.98 6.175 3.986 0 5.98-2.0583 5.98-6.175V16.655h11.765v21.06c0 4.5067-1.495 7.8867-4.485 10.14-2.947 2.2533-7.367 3.38-13.26 3.38-5.894 0-10.335-1.1267-13.325-3.38-2.947-2.2533-4.42-5.6333-4.42-10.14v-21.06h11.765zM232.228 16.655h11.765v5.46c1.257-1.9933 2.795-3.51 4.615-4.55 1.82-1.0833 3.944-1.625 6.37-1.625h.975c.39 0 .824.0433 1.3.13v11.245c-1.56-.78-3.25-1.17-5.07-1.17-2.73 0-4.788.8233-6.175 2.47-1.343 1.6033-2.015 3.965-2.015 7.085V50h-11.765V16.655zM287.262 28.485c-.39-1.6467-1.191-2.9683-2.405-3.965-1.213-.9967-2.686-1.495-4.42-1.495-1.82 0-3.315.4767-4.485 1.43-1.126.9533-1.841 2.2967-2.145 4.03h13.455zm-13.78 6.825c0 5.07 2.384 7.605 7.15 7.605 2.557 0 4.485-1.04 5.785-3.12h11.375c-2.296 7.6267-8.038 11.44-17.225 11.44-2.816 0-5.395-.4117-7.735-1.235-2.34-.8667-4.355-2.08-6.045-3.64-1.646-1.56-2.925-3.4233-3.835-5.59-.91-2.1667-1.365-4.5933-1.365-7.28 0-2.7733.434-5.265 1.3-7.475.867-2.2533 2.102-4.16 3.705-5.72 1.604-1.56 3.532-2.7517 5.785-3.575 2.297-.8667 4.875-1.3 7.735-1.3 2.817 0 5.352.4333 7.605 1.3 2.254.8233 4.16 2.0367 5.72 3.64 1.56 1.6033 2.752 3.575 3.575 5.915.824 2.2967 1.235 4.8967 1.235 7.8v1.235h-24.765zM15.145 119.165c0 1.127.195 2.167.585 3.12.4333.91.975 1.712 1.625 2.405.6933.693 1.495 1.235 2.405 1.625.9533.39 1.95.585 2.99.585 1.04 0 2.015-.195 2.925-.585.9533-.39 1.755-.932 2.405-1.625.6933-.693 1.235-1.495 1.625-2.405.4333-.953.65-1.972.65-3.055 0-1.04-.2167-2.015-.65-2.925-.39-.953-.9317-1.777-1.625-2.47-.65-.693-1.4517-1.235-2.405-1.625-.91-.39-1.885-.585-2.925-.585-1.04 0-2.0367.195-2.99.585-.91.39-1.7117.932-2.405 1.625-.65.693-1.1917 1.495-1.625 2.405-.39.91-.585 1.885-.585 2.925zm-12.415-.13c0-2.47.49834-4.767 1.495-6.89.99667-2.167 2.38334-4.03 4.16-5.59 1.7767-1.603 3.8783-2.86 6.305-3.77 2.47-.91 5.1567-1.365 8.06-1.365 2.86 0 5.5033.455 7.93 1.365 2.47.867 4.5933 2.102 6.37 3.705 1.82 1.56 3.2283 3.445 4.225 5.655.9967 2.167 1.495 4.572 1.495 7.215s-.52 5.07-1.56 7.28c-.9967 2.167-2.3833 4.052-4.16 5.655-1.7767 1.56-3.9217 2.773-6.435 3.64-2.47.867-5.1567 1.3-8.06 1.3-2.86 0-5.5033-.433-7.93-1.3-2.4267-.867-4.5283-2.102-6.305-3.705-1.73333-1.603-3.09833-3.51-4.095-5.72-.99666-2.253-1.495-4.745-1.495-7.475zM62.2827 112.47V136h-11.765v-23.53h-4.225v-9.815h4.225V97.65c0-2.7733.26-4.9833.78-6.63.4333-1.3867 1.1267-2.665 2.08-3.835.9533-1.2133 2.0583-2.2533 3.315-3.12 1.3-.8667 2.6867-1.5383 4.16-2.015 1.4733-.4767 2.925-.715 4.355-.715.9967 0 1.9067.1083 2.73.325.8667.2167 1.7333.52 2.6.91v10.27c-.78-.39-1.5167-.6717-2.21-.845-.65-.2167-1.3433-.325-2.08-.325-.4767 0-.975.0867-1.495.26-.4767.13-.9317.4333-1.365.91s-.7367 1.17-.91 2.08c-.13.8667-.195 2.0583-.195 3.575v4.16h8.255v9.815h-8.255zM17.875 172.99v38.22H33.15V222H5.135v-49.01h12.74zM50.3897 188.655V222h-11.765v-33.345h11.765zm-12.545-12.805c0-.91.1734-1.755.52-2.535.3467-.823.8234-1.538 1.43-2.145.6067-.607 1.3-1.083 2.08-1.43.8234-.347 1.69-.52 2.6-.52.91 0 1.755.173 2.535.52.8234.347 1.5384.823 2.145 1.43.6067.607 1.0834 1.322 1.43 2.145.3467.78.52 1.625.52 2.535 0 .91-.1733 1.777-.52 2.6-.3466.78-.8233 1.473-1.43 2.08-.6066.607-1.3216 1.083-2.145 1.43-.78.347-1.625.52-2.535.52-.91 0-1.7766-.173-2.6-.52-.78-.347-1.4733-.823-2.08-1.43-.6066-.607-1.0833-1.3-1.43-2.08-.3466-.823-.52-1.69-.52-2.6zM71.1694 198.47V222h-11.765v-23.53h-4.225v-9.815h4.225v-5.005c0-2.773.26-4.983.78-6.63.4334-1.387 1.1267-2.665 2.08-3.835.9534-1.213 2.0584-2.253 3.315-3.12 1.3-.867 2.6867-1.538 4.16-2.015 1.4734-.477 2.925-.715 4.355-.715.9967 0 1.9067.108 2.73.325.8667.217 1.7334.52 2.6.91v10.27c-.78-.39-1.5166-.672-2.21-.845-.65-.217-1.3433-.325-2.08-.325-.4766 0-.975.087-1.495.26-.4766.13-.9316.433-1.365.91-.4333.477-.7366 1.17-.91 2.08-.13.867-.195 2.058-.195 3.575v4.16h8.255v9.815h-8.255zM108.893 200.485c-.39-1.647-1.191-2.968-2.405-3.965-1.213-.997-2.686-1.495-4.42-1.495-1.82 0-3.3147.477-4.4847 1.43-1.1267.953-1.8417 2.297-2.145 4.03h13.4547zm-13.7797 6.825c0 5.07 2.3833 7.605 7.1497 7.605 2.557 0 4.485-1.04 5.785-3.12h11.375c-2.296 7.627-8.038 11.44-17.225 11.44-2.8164 0-5.3947-.412-7.7347-1.235-2.34-.867-4.355-2.08-6.045-3.64-1.6467-1.56-2.925-3.423-3.835-5.59-.91-2.167-1.365-4.593-1.365-7.28 0-2.773.4333-5.265 1.3-7.475.8667-2.253 2.1017-4.16 3.705-5.72 1.6033-1.56 3.5317-2.752 5.785-3.575 2.2967-.867 4.875-1.3 7.7347-1.3 2.817 0 5.352.433 7.605 1.3 2.254.823 4.16 2.037 5.72 3.64 1.56 1.603 2.752 3.575 3.575 5.915.824 2.297 1.235 4.897 1.235 7.8v1.235H95.1133zM126.018 215.76c0-1.04.195-2.015.585-2.925.39-.953.932-1.777 1.625-2.47.694-.693 1.495-1.235 2.405-1.625.954-.39 1.95-.585 2.99-.585 1.04 0 2.015.195 2.925.585.954.39 1.777.932 2.47 1.625.694.693 1.235 1.517 1.625 2.47.39.91.585 1.885.585 2.925 0 1.04-.195 2.037-.585 2.99-.39.91-.931 1.712-1.625 2.405-.693.693-1.516 1.235-2.47 1.625-.91.39-1.885.585-2.925.585-1.04 0-2.036-.195-2.99-.585-.91-.39-1.711-.932-2.405-1.625-.693-.693-1.235-1.495-1.625-2.405-.39-.953-.585-1.95-.585-2.99z" fill="#fff"/><path d="M315 114c0 16.802-16.949 32-40 32s-40-15.198-40-32c0-16.8022 16.949-32 40-32s40 15.1978 40 32z" stroke="#fff" stroke-width="10"/><path fill="#fff" d="M269 142h13v87h-13z"/><path fill="#FEFEFE" d="M236 211h33v11h-33z"/><circle cx="260.5" cy="105.5" r="7.5" fill="#fff"/><circle cx="288.5" cy="105.5" r="7.5" fill="#fff"/><path d="M274.783 132.013c-.4.505-1.166.505-1.566 0l-7.456-9.391c-.52-.656-.053-1.622.783-1.622h14.912c.836 0 1.303.966.783 1.622l-7.456 9.391z" fill="#fff"/></svg>